<?xml version="1.0" encoding="UTF-8"?>
<svg version="1.1" xmlns="http://www.w3.org/2000/svg" width="256" height="108">
<path d="M0 0 C5.78294495 1.75053283 9.99598341 7.22601176 14.13208008 11.45709229 C15.24034464 12.56504669 16.34994505 13.67166634 17.46081543 14.77700806 C19.77987101 17.09329993 22.08440454 19.42287289 24.37915039 21.76324463 C27.31905352 24.75998602 30.28913079 27.72449783 33.27025604 30.68017006 C35.56355046 32.95954643 37.84185611 35.25343754 40.11573792 37.55216599 C41.20563611 38.65108444 42.29972494 39.7458632 43.39805603 40.8363533 C44.93076212 42.3632279 46.44262188 43.90812759 47.95043945 45.45953369 C48.81455444 46.33445465 49.67866943 47.20937561 50.56896973 48.11080933 C52.82235125 51.31150147 53.02011436 52.89325958 52.41333008 56.73052979 C51.22663879 58.71723938 51.22663879 58.71723938 49.52587891 60.48468018 C48.88300934 61.16475128 48.24013977 61.84482239 47.57778931 62.54550171 C46.86351776 63.26656097 46.14924622 63.98762024 45.41333008 64.73052979 C44.67335785 65.49453094 43.93338562 66.2585321 43.17098999 67.04568481 C40.67098303 69.60522263 38.1454139 72.13710934 35.61254883 74.66412354 C34.69496292 75.58266617 33.77737701 76.5012088 32.83198547 77.44758606 C30.906534 79.37449927 28.97931701 81.29962353 27.05078125 83.22344971 C24.57813293 85.69035317 22.11006689 88.16178515 19.64326763 90.63453579 C17.28128294 93.000991 14.91550919 95.36364246 12.55004883 97.72662354 C11.66363205 98.61506454 10.77721527 99.50350555 9.86393738 100.41886902 C8.63674736 101.6413308 8.63674736 101.6413308 7.38476562 102.88848877 C6.66419479 103.60826401 5.94362396 104.32803925 5.20121765 105.06962585 C2.89553262 107.21155099 1.76759544 107.68726227 -1.38223267 108.07196045 C-5.58177562 107.62450193 -6.8736142 106.21483557 -9.85766602 103.26763916 C-10.3462207 102.79281097 -10.83477539 102.31798279 -11.33813477 101.82876587 C-12.94444109 100.25898158 -14.52766906 98.66809641 -16.11010742 97.07427979 C-17.22181543 95.97169701 -18.3342638 94.86986027 -19.44741821 93.76873779 C-21.77567394 91.45834177 -24.0922361 89.13694083 -26.40161133 86.80767822 C-29.3573908 83.82893059 -32.3436577 80.88305255 -35.33997154 77.94515228 C-37.64471602 75.67716622 -39.9304839 73.39077251 -42.21120071 71.09864807 C-43.30465571 70.00488699 -44.40431396 68.91729018 -45.51026535 67.83616638 C-55.20345168 58.3302083 -55.20345168 58.3302083 -55.70825195 53.49810791 C-54.13529651 48.21429243 -51.32127999 45.45775033 -47.36791992 41.73052979 C-46.63545044 41.00937988 -45.90298096 40.28822998 -45.14831543 39.54522705 C-42.812583 37.25415181 -40.4505632 34.9925021 -38.08666992 32.73052979 C-36.495008 31.17900739 -34.90514153 29.62564082 -33.31713867 28.07037354 C-29.42753563 24.26880805 -25.51598924 20.49100667 -21.58666992 16.73052979 C-15.80851763 19.48286291 -9.94243362 24.07111675 -7.66479492 30.21881104 C-7.21166992 32.60552979 -7.21166992 32.60552979 -7.00073242 34.78521729 C-6.77988918 36.83822577 -6.77988918 36.83822577 -5.07910156 37.92364502 C-2.79513699 40.68883753 -3.24901377 43.05569371 -3.29370117 46.58599854 C-3.29794601 47.24763504 -3.30219086 47.90927155 -3.30656433 48.59095764 C-3.32333299 50.70039889 -3.36097893 52.80887824 -3.39916992 54.91802979 C-3.41421924 56.34965659 -3.42790722 57.78129841 -3.44018555 59.21295166 C-3.47322962 62.71912266 -3.52499825 66.22473232 -3.58666992 69.73052979 C-4.57666992 70.06052979 -5.56666992 70.39052979 -6.58666992 70.73052979 C-6.782406 72.1669315 -6.96794809 73.60472483 -7.14916992 75.04302979 C-7.25358398 75.8435376 -7.35799805 76.64404541 -7.46557617 77.46881104 C-7.73422171 79.89870094 -7.73422171 79.89870094 -6.58666992 82.73052979 C-2.56626007 83.42636995 0.49596427 83.90053949 4.41333008 82.73052979 C4.60906616 81.29412807 4.79460824 79.85633474 4.97583008 78.41802979 C5.08024414 77.61752197 5.1846582 76.81701416 5.29223633 75.99224854 C5.56088186 73.56235863 5.56088186 73.56235863 4.41333008 70.73052979 C3.75333008 70.73052979 3.09333008 70.73052979 2.41333008 70.73052979 C2.41333008 60.50052979 2.41333008 50.27052979 2.41333008 39.73052979 C4.72333008 41.71052979 7.03333008 43.69052979 9.41333008 45.73052979 C10.38270508 46.55552979 11.35208008 47.38052979 12.35083008 48.23052979 C14.9196307 51.34422751 14.58038093 52.80483477 14.41333008 56.73052979 C15.31568843 59.21158173 15.31568843 59.21158173 17.41333008 60.73052979 C20.8842694 61.1643972 23.27261097 61.39288282 26.35083008 59.60552979 C27.94323291 56.79540714 27.86652333 54.90288255 27.41333008 51.73052979 C25.91333008 49.23052979 25.91333008 49.23052979 23.41333008 47.73052979 C22.03274414 47.83301025 22.03274414 47.83301025 20.62426758 47.93756104 C16.37161133 47.663363 14.47195017 45.7410126 11.66333008 42.79302979 C11.17670898 42.29811035 10.69008789 41.80319092 10.1887207 41.29327393 C6.09998784 36.89365637 5.15231395 33.55002777 4.41333008 27.73052979 C1.52630691 25.55218298 1.52630691 25.55218298 -1.90307617 24.95709229 C-6.34164964 23.47913675 -8.42901151 21.47895279 -11.52416992 18.10552979 C-12.01723633 17.58990479 -12.51030273 17.07427979 -13.01831055 16.54302979 C-14.21962306 15.28340113 -15.40487729 14.00848999 -16.58666992 12.73052979 C-15.14698289 11.01378958 -13.6959065 9.30991649 -12.22338867 7.62115479 C-10.85385827 6.0391674 -9.52723216 4.42017255 -8.21166992 2.79302979 C-5.39812507 0.5823874 -3.58589249 -0.1144585 0 0 Z " fill="#DE4B35" transform="translate(54.586669921875,0.26947021484375)"/>
<path d="M0 0 C1.07592407 0.00966797 1.07592407 0.00966797 2.17358398 0.01953125 C11.60291954 0.14791705 21.0229161 0.67213666 30.4375 1.1875 C30.4375 4.1575 30.4375 7.1275 30.4375 10.1875 C27.7975 10.8475 25.1575 11.5075 22.4375 12.1875 C22.76105469 12.74695312 23.08460938 13.30640625 23.41796875 13.8828125 C25.61906385 18.85846809 25.02535368 24.4565975 23.3125 29.5 C19.64036549 34.7633928 15.59493426 37.57413381 9.4375 39.1875 C5.79813478 39.24367543 2.21585868 39.06068204 -1.41796875 38.8671875 C-4.65913549 38.85429899 -4.65913549 38.85429899 -6.48828125 41.1953125 C-6.84277344 41.85273437 -7.19726562 42.51015625 -7.5625 43.1875 C-6.87027344 43.16429687 -6.17804688 43.14109375 -5.46484375 43.1171875 C18.77070803 42.67015492 18.77070803 42.67015492 27.25 49.6875 C30.00844663 53.17185364 29.83535126 57.30968851 29.7734375 61.55078125 C29.21297378 65.94976977 27.47481318 68.99499563 24.4375 72.1875 C15.23477482 79.04363228 2.34255841 79.01201717 -8.55859375 77.875 C-14.19504252 77.01844333 -18.18655628 75.89022161 -22.5625 72.1875 C-25.25664604 68.14628094 -25.1194631 64.93379425 -24.5625 60.1875 C-23.0625 56.625 -23.0625 56.625 -21.5625 54.1875 C-22.2225 53.1975 -22.8825 52.2075 -23.5625 51.1875 C-24.125 48 -24.125 48 -23.5625 44.1875 C-21.4969046 41.24106466 -19.12633314 38.7055504 -16.5625 36.1875 C-16.98402344 35.58421875 -17.40554687 34.9809375 -17.83984375 34.359375 C-18.66162109 33.16054687 -18.66162109 33.16054687 -19.5 31.9375 C-20.04527344 31.14859375 -20.59054688 30.3596875 -21.15234375 29.546875 C-24.02501994 24.74051372 -24.29102994 19.64300441 -23.13671875 14.16796875 C-21.43366499 8.70356926 -18.44913533 5.16692426 -13.5625 2.1875 C-8.92498633 0.24972871 -5.00395177 -0.05380593 0 0 Z M-7.5625 16.1875 C-8.19914952 20.21961364 -8.26068231 22.20487304 -5.875 25.5625 C-3.19894946 27.44296795 -1.83999873 28.1112791 1.4375 28.1875 C6.24648339 26.65334848 6.24648339 26.65334848 9.9375 23.375 C10.64278098 20.28939572 10.32270977 18.22250494 9.4375 15.1875 C8.00088689 12.66743156 8.00088689 12.66743156 5.4375 11.1875 C-0.73749257 10.3053582 -3.84472104 10.72701216 -7.5625 16.1875 Z M-9.5625 57.1875 C-11.82896351 59.94306583 -11.82896351 59.94306583 -11.4375 62.75 C-10.80441605 65.2502708 -10.80441605 65.2502708 -8.94140625 66.32421875 C-5.75951498 67.47889522 -3.00437236 67.45192635 0.375 67.4375 C1.58027344 67.44265625 2.78554687 67.4478125 4.02734375 67.453125 C7.30575926 67.19776159 9.53846804 66.70654996 12.4375 65.1875 C13.50504834 63.25349083 13.50504834 63.25349083 13.4375 61.1875 C9.55034818 57.30034818 3.51563807 57.82825323 -1.75 57.4375 C-2.47380859 57.36917969 -3.19761719 57.30085938 -3.94335938 57.23046875 C-6.27761616 57.02475622 -6.27761616 57.02475622 -9.5625 57.1875 Z " fill="#FDFDFD" transform="translate(151.5625,26.8125)"/>
<path d="M0 0 C3.63 0 7.26 0 11 0 C11 5.28 11 10.56 11 16 C15.95 16 20.9 16 26 16 C26 19.63 26 23.26 26 27 C21.05 27 16.1 27 11 27 C11.11981065 30.95120235 11.24242156 34.9021587 11.37231445 38.85302734 C11.43698251 40.85894807 11.49683106 42.86502228 11.55664062 44.87109375 C11.59853516 46.12792969 11.64042969 47.38476562 11.68359375 48.6796875 C11.72025146 49.84226074 11.75690918 51.00483398 11.79467773 52.20263672 C11.81821659 54.9535501 11.81821659 54.9535501 13 57 C17.29 57 21.58 57 26 57 C29 64.75 29 64.75 29 67 C18.95052589 70.47926152 11.06496163 72.72017565 0.82421875 69.2421875 C-2.04012399 67.2917357 -3.30810025 65.01068419 -5 62 C-5.40232013 59.1977935 -5.60455436 56.77304705 -5.609375 53.9765625 C-5.62591125 53.23038666 -5.64244751 52.48421082 -5.65948486 51.71542358 C-5.70774291 49.3518635 -5.72928476 46.98894565 -5.75 44.625 C-5.7781785 43.01429099 -5.80810856 41.40361161 -5.83984375 39.79296875 C-5.9134949 35.86203212 -5.96320414 31.93144735 -6 28 C-8.31 27.67 -10.62 27.34 -13 27 C-13 23.7 -13 20.4 -13 17 C-11.7625 16.505 -10.525 16.01 -9.25 15.5 C-5.10561583 13.4388107 -3.53879023 11.2646255 -1.69140625 7.09765625 C-0.80615753 4.55383944 -0.80615753 4.55383944 0 0 Z " fill="#FEFEFE" transform="translate(227,10)"/>
<path d="M0 0 C7.26 0 14.52 0 22 0 C22 14.52 22 29.04 22 44 C25.465 44.495 25.465 44.495 29 45 C29 47.97 29 50.94 29 54 C19.1 54 9.2 54 -1 54 C-1 45 -1 45 0 44 C1.65 44 3.3 44 5 44 C5 33.11 5 22.22 5 11 C3.02 10.34 1.04 9.68 -1 9 C-1.09765625 2.84765625 -1.09765625 2.84765625 -1 1 C-0.67 0.67 -0.34 0.34 0 0 Z " fill="#FEFEFE" transform="translate(187,27)"/>
<path d="M0 0 C3.17030133 2.76385245 3.91484046 4.31872368 4.4375 8.5 C3.96273673 12.29810617 3.53588207 14.13690734 1 17 C-3.0843725 18.80654937 -5.40392479 19.10748897 -9.8125 18.3125 C-13 17 -13 17 -15 14 C-15.65946382 9.40675779 -15.91213217 5.33562211 -13.25 1.4375 C-8.70468721 -1.46644984 -5.26513517 -1.31628379 0 0 Z " fill="#FAFAFA" transform="translate(205,1)"/>
</svg>
