<?xml version="1.0" encoding="UTF-8"?>
<svg version="1.1" xmlns="http://www.w3.org/2000/svg" width="512" height="512">
<path d="M0 0 C7.85571495 3.51534276 13.02362555 9.18410182 16.56640625 16.9609375 C19.54374712 25.37740324 18.91343051 32.92452329 15.2578125 41 C12.66386587 45.93657664 9.13684934 49.04274335 4.92578125 52.54296875 C2.59739748 54.62332903 0.6467194 56.91788104 -1.31640625 59.33984375 C-3.37877213 61.73902818 -5.62730955 63.91735876 -7.87109375 66.1484375 C-8.88681285 67.16348001 -9.90217878 68.17887601 -10.91723633 69.19458008 C-18.90185547 77.17919922 -26.88647461 85.16381836 -34.87109375 93.1484375 C-32.99029078 93.94048409 -31.10860515 94.73043488 -29.2265625 95.51953125 C-28.17879639 95.95966553 -27.13103027 96.3997998 -26.05151367 96.85327148 C-23.11764479 98.04803424 -20.16491809 99.14165464 -17.18359375 100.2109375 C-11.66116435 102.50587848 -6.93095298 105.60282309 -2.05859375 109.0234375 C-1.35323486 109.517229 -0.64787598 110.01102051 0.07885742 110.51977539 C4.81055896 113.93975124 9.4033801 117.62045657 13.12890625 122.1484375 C13.12890625 122.8084375 13.12890625 123.4684375 13.12890625 124.1484375 C13.71800781 124.41011719 14.30710937 124.67179687 14.9140625 124.94140625 C17.24676059 126.212665 18.73244993 127.55074281 20.56640625 129.4609375 C21.17484375 130.08871094 21.78328125 130.71648437 22.41015625 131.36328125 C23.2609375 132.24693359 23.2609375 132.24693359 24.12890625 133.1484375 C25.33546875 134.3240625 25.33546875 134.3240625 26.56640625 135.5234375 C28.78578742 137.79694992 30.85962775 140.12574709 32.94140625 142.5234375 C35.50684828 145.43958602 38.09710387 148.08391578 41.06640625 150.5859375 C44.99212048 153.9082832 48.31071674 157.60481877 51.69140625 161.47265625 C53.86683612 163.86074833 56.13263156 166.09344679 58.47802734 168.31298828 C65.76064246 175.26998764 69.19371389 180.45434308 69.69140625 190.5859375 C69.37844459 199.24790874 66.18278561 205.22042452 60.37890625 211.5234375 C53.40899112 217.93524024 46.78298198 219.96475316 37.31640625 219.5703125 C22.81200203 217.65061194 11.93178814 203.03454406 2.19140625 193.17578125 C1.17059629 192.14581017 0.14976272 191.11586249 -0.87109375 190.0859375 C-1.37898437 189.56966797 -1.886875 189.05339844 -2.41015625 188.52148438 C-5.41618677 185.49618442 -8.52870529 182.80624038 -11.87109375 180.1484375 C-13.06138131 178.70079046 -14.25064755 177.25217313 -15.421875 175.7890625 C-17.70884427 173.20004068 -20.34021798 171.03856852 -22.96484375 168.80078125 C-25.97172503 166.1944067 -28.73653274 163.32663548 -31.49609375 160.4609375 C-42.49878134 149.82500617 -56.8118619 148.58261959 -71.33984375 148.8046875 C-88.46650342 149.51435572 -99.04334003 157.9648659 -110.65429688 169.72583008 C-112.12704083 171.21695882 -113.60775948 172.69980076 -115.08984375 174.18164062 C-120.24353543 179.3217547 -120.24353543 179.3217547 -125.00292969 184.82202148 C-126.87780207 187.15679134 -128.93962355 188.86316238 -131.26478577 190.73141479 C-132.98988726 192.25323254 -134.40674131 193.8707187 -135.88452148 195.63330078 C-140.11843711 200.52785736 -144.70242292 205.04764374 -149.31721687 209.57802963 C-150.88148716 211.11520859 -152.44096551 212.65710356 -153.99913025 214.20046997 C-158.42389226 218.58292671 -162.85138114 222.96250683 -167.29516602 227.32568359 C-170.02882902 230.01043981 -172.75229613 232.70519275 -175.46966362 235.40643692 C-176.4964899 236.42346677 -177.52693417 237.43685902 -178.56126595 238.44625473 C-186.39493747 246.09511573 -192.91441675 253.81811016 -196.18359375 264.4609375 C-196.48910156 265.42644531 -196.79460937 266.39195312 -197.109375 267.38671875 C-200.7393737 280.54779096 -198.65557307 294.09170568 -193.18359375 306.5234375 C-185.88121553 318.88269017 -173.15335114 328.94751916 -163.05859375 338.9609375 C-159.71584087 342.2770372 -156.37646107 345.5964814 -153.0390625 348.91796875 C-152.2786113 349.67012161 -151.5181601 350.42227448 -150.73466492 351.19721985 C-147.20759209 354.7079159 -143.94026593 358.22254287 -140.87109375 362.1484375 C-139.42344671 363.33872506 -137.97482938 364.5279913 -136.51171875 365.69921875 C-133.97662449 367.93855201 -131.85308377 370.50079469 -129.6796875 373.0859375 C-127.51509318 375.55441655 -125.19675551 377.83069111 -122.87109375 380.1484375 C-121.06259416 381.98969976 -119.25537503 383.8322203 -117.44921875 385.67578125 C-115.87880001 387.26835722 -114.30691818 388.85947296 -112.734375 390.44995117 C-111.66327655 391.5361241 -110.59488762 392.62497595 -109.52929688 393.71655273 C-101.0093809 402.43788205 -93.35624174 410.18673995 -80.99609375 412.5234375 C-79.81611816 412.76139038 -79.81611816 412.76139038 -78.61230469 413.00415039 C-65.26250385 415.55082671 -51.22673247 414.19378309 -38.87109375 408.1484375 C-36.29699506 406.37476526 -33.99638236 404.37222226 -31.68359375 402.2734375 C-31.09384766 401.75652344 -30.50410156 401.23960937 -29.89648438 400.70703125 C-26.42575924 397.64167446 -23.11542804 394.45408204 -19.87109375 391.1484375 C-17.70736317 388.95801987 -15.53938622 386.77183791 -13.37109375 384.5859375 C-12.81550781 384.02197266 -12.25992188 383.45800781 -11.6875 382.87695312 C-8.55979386 379.73084872 -5.34747437 376.91278835 -1.87109375 374.1484375 C-0.89811185 373.07540605 0.04351298 371.97254559 0.94140625 370.8359375 C3.65801489 367.57462815 6.62442958 364.90388347 9.86328125 362.171875 C12.06829769 360.20256721 14.11294994 358.1229598 16.15722656 355.98876953 C23.06790374 348.80271887 30.01707661 343.12355946 40.31640625 342.8984375 C49.61742429 343.09600814 55.26912662 346.41404002 61.95703125 352.80078125 C68.19804099 359.54690868 69.52523288 366.07285661 69.39453125 375.05859375 C67.89325608 392.52195639 45.54414765 408.05935566 33.73974609 419.94262695 C31.33849888 422.36163955 28.94605775 424.78886813 26.56103516 427.22387695 C-4.55265081 458.97282539 -4.55265081 458.97282539 -25.37109375 465.7109375 C-26.716875 466.18370117 -26.716875 466.18370117 -28.08984375 466.66601562 C-36.96173557 469.71572844 -45.23483841 471.45969227 -54.62890625 471.484375 C-55.53502655 471.4910318 -56.44114685 471.4976886 -57.37472534 471.50454712 C-59.28234855 471.51461151 -61.19000652 471.51936608 -63.09765625 471.51904297 C-65.96806133 471.523395 -68.83689935 471.55972282 -71.70703125 471.59765625 C-82.80524604 471.66611408 -92.33280541 470.72707488 -102.87109375 467.1484375 C-103.71784668 466.88724121 -104.56459961 466.62604492 -105.43701172 466.35693359 C-125.10610488 460.13231981 -138.60359466 447.84016433 -152.93359375 433.5234375 C-153.89540558 432.56263779 -153.89540558 432.56263779 -154.87664795 431.58242798 C-156.7071348 429.74503973 -158.52779331 427.89861596 -160.34375 426.046875 C-161.18150215 425.20069359 -161.18150215 425.20069359 -162.03617859 424.3374176 C-165.87109375 420.3833633 -165.87109375 420.3833633 -165.87109375 418.1484375 C-166.4434375 417.91511719 -167.01578125 417.68179687 -167.60546875 417.44140625 C-170.41045589 415.84062911 -172.02921102 413.91777099 -174.12109375 411.4609375 C-177.58022185 407.50602003 -181.15627584 404.04399275 -185.16796875 400.6640625 C-187.3633259 398.71039604 -189.04506429 396.44570036 -190.87109375 394.1484375 C-192.00030599 393.15014841 -193.14786476 392.17239971 -194.30859375 391.2109375 C-197.59133267 388.48696265 -200.14510084 385.43360845 -202.87109375 382.1484375 C-203.84046875 381.3440625 -204.80984375 380.5396875 -205.80859375 379.7109375 C-208.75555584 377.24511208 -211.00570765 374.7061316 -213.44140625 371.765625 C-214.93319205 369.98349113 -214.93319205 369.98349113 -217.30859375 368.2109375 C-220.27290687 365.82502694 -222.58071731 363.14857748 -225.02734375 360.24609375 C-226.38998848 358.69579667 -227.82248206 357.20627105 -229.2890625 355.75390625 C-245.72113493 339.17267734 -255.89872804 315.47016805 -256.109375 292.12109375 C-256.11744675 291.2551207 -256.12551849 290.38914764 -256.13383484 289.49693298 C-256.14762406 287.66553719 -256.15836914 285.83411625 -256.16625977 284.00268555 C-256.17771619 282.15755506 -256.19806604 280.31245603 -256.2277832 278.4675293 C-256.49540683 261.81356519 -253.93509871 248.39181662 -246.87109375 233.1484375 C-246.33355469 231.96894531 -245.79601562 230.78945312 -245.2421875 229.57421875 C-242.37813997 223.46408846 -239.44568557 217.93511098 -234.71209258 213.06744844 C-232.96344276 211.24469979 -231.31494663 209.3708005 -229.672925 207.452075 C-225.80219201 203.01052967 -221.70511185 198.83132932 -217.54179382 194.66523743 C-216.73024159 193.84930294 -215.91868935 193.03336845 -215.08254462 192.19270867 C-212.37990026 189.47677777 -209.67374932 186.76436966 -206.9675293 184.05200195 C-205.02172064 182.0988015 -203.07660877 180.14490759 -201.13140869 178.19110107 C-195.31053907 172.34583259 -189.48483122 166.50539827 -183.65822074 160.66585305 C-182.01104612 159.01495967 -180.36399861 157.36393958 -178.71699548 155.71287513 C-168.47237747 145.44303208 -158.2261644 135.17478332 -147.97516155 124.91131306 C-145.60687519 122.54009744 -143.23860508 120.16886559 -140.87036133 117.79760742 C-140.2818106 117.20831065 -139.69325988 116.61901387 -139.08687428 116.01185962 C-129.54443474 106.45675516 -120.01233311 96.89140563 -110.48439696 87.32184122 C-100.68723589 77.48222889 -90.88064273 67.65209623 -81.06484443 57.83107537 C-75.55969369 52.32251601 -70.05875752 46.80988772 -64.56842613 41.28655434 C-59.89555825 36.58564211 -55.21422386 31.89337199 -50.52172669 27.21205036 C-48.13025779 24.82575523 -45.74447717 22.43443629 -43.36664772 20.03450584 C-40.78299084 17.42815024 -38.18429029 14.83775859 -35.5813446 12.25068665 C-34.84094915 11.4964091 -34.10055369 10.74213155 -33.337722 9.96499711 C-23.88499873 0.65326585 -13.25489128 -3.93138272 0 0 Z " fill="#FFFFFF" transform="translate(313.87109375,21.8515625)"/>
<path d="M0 0 C0.84165738 -0.00367669 1.68331476 -0.00735338 2.55047691 -0.01114148 C5.37536276 -0.02216884 8.20021182 -0.02602057 11.02511597 -0.02983093 C13.04886492 -0.03609634 15.07261271 -0.04274321 17.09635925 -0.04974365 C23.74691976 -0.07077861 30.39748048 -0.08114603 37.04806519 -0.09111023 C39.33856086 -0.0951581 41.62905642 -0.09927503 43.91955185 -0.10346031 C54.68157006 -0.12251132 65.44358142 -0.13674213 76.20561326 -0.14507228 C88.62272495 -0.15484249 101.03965827 -0.18115688 113.45670712 -0.22157317 C123.05771539 -0.25174951 132.65867259 -0.26654264 142.25972736 -0.26985329 C147.99228445 -0.27220218 153.72465097 -0.2811418 159.45715714 -0.30631447 C164.85311438 -0.32962636 170.248756 -0.33381575 175.6447506 -0.32355309 C177.62078464 -0.32305836 179.59683439 -0.32935991 181.57282066 -0.34310913 C202.63359842 -0.48140538 202.63359842 -0.48140538 211.60275269 6.33076477 C212.30400269 7.07455383 213.00525269 7.8183429 213.72775269 8.58467102 C214.44962769 9.32588196 215.17150269 10.0670929 215.91525269 10.83076477 C220.7013668 16.94750112 221.10922798 24.57552271 220.48165894 32.09638977 C219.20371547 40.38605845 216.03775292 45.27179552 209.80197144 50.75263977 C203.88415427 54.73128521 198.86126836 55.58804936 191.89819336 55.5415802 C190.60017739 55.55071686 190.60017739 55.55071686 189.27593887 55.56003809 C186.38881075 55.57662967 183.50212553 55.57189776 180.61495972 55.5670929 C178.53988183 55.57443544 176.46480803 55.58302221 174.38973999 55.59275818 C168.76159431 55.61496313 163.13359509 55.61790536 157.50541162 55.61601067 C152.80365446 55.61589092 148.10192828 55.62445678 143.40017974 55.63278818 C132.30606192 55.65201857 121.21201933 55.65490737 110.1178894 55.64814758 C98.68036346 55.6415067 87.24316001 55.66437411 75.80569947 55.70146132 C65.97872851 55.73216785 56.15186125 55.7435173 46.32484329 55.7396245 C40.45876403 55.73755803 34.59293575 55.74302096 28.72690201 55.76751709 C23.20935223 55.78979719 17.69232645 55.78789545 12.17477417 55.76758957 C10.15317248 55.76418182 8.13153542 55.76925843 6.10998154 55.78357315 C-13.50962145 55.91288302 -13.50962145 55.91288302 -20.27224731 50.14717102 C-21.03279419 49.51295227 -21.79334106 48.87873352 -22.57693481 48.22529602 C-28.39384286 41.45337322 -30.93155514 34.74492668 -30.62380981 25.76435852 C-29.61007872 18.21769374 -26.8544999 11.35727344 -21.27224731 6.14717102 C-14.08009508 1.41684867 -8.56955703 -0.00200762 0 0 Z " fill="#FFFFFF" transform="translate(234.27224731445313,275.8528289794922)"/>
</svg>
