<?xml version="1.0" encoding="UTF-8"?>
<svg xmlns="http://www.w3.org/2000/svg" xmlns:xlink="http://www.w3.org/1999/xlink" width="59px" height="40px" viewBox="0 0 58 40" version="1.1">
<g id="surface1">
<path style=" stroke:none;fill-rule:nonzero;fill:rgb(0%,45.882353%,56.078434%);fill-opacity:1;" d="M 17.253906 26.394531 L 19.015625 32.179688 C 19.414062 33.496094 19.578125 34.414062 19.511719 34.933594 C 20.476562 32.324219 21.148438 29.476562 21.53125 26.394531 L 23.652344 26.394531 C 22.742188 31.410156 21.539062 35.054688 20.046875 37.332031 C 18.882812 39.082031 17.609375 39.957031 16.222656 39.957031 C 15.855469 39.957031 15.398438 39.847656 14.855469 39.621094 L 14.855469 38.410156 C 15.121094 38.453125 15.429688 38.472656 15.789062 38.472656 C 16.433594 38.472656 16.957031 38.289062 17.351562 37.929688 C 17.828125 37.488281 18.066406 36.992188 18.066406 36.441406 C 18.066406 36.066406 17.878906 35.296875 17.511719 34.132812 L 15.054688 26.394531 Z M 3.761719 22.839844 L 6.992188 32.804688 L 7.011719 32.804688 L 10.261719 22.839844 L 12.914062 22.839844 C 13.496094 27.78125 13.839844 32.304688 13.945312 36.402344 L 11.707031 36.402344 C 11.628906 32.570312 11.410156 28.96875 11.054688 25.59375 L 11.035156 25.59375 L 7.625 36.402344 L 5.921875 36.402344 L 2.535156 25.59375 L 2.515625 25.59375 C 2.265625 28.832031 2.105469 32.4375 2.039062 36.402344 L 0 36.402344 C 0.132812 31.578125 0.460938 27.058594 0.988281 22.839844 Z M 3.761719 22.839844 "/>
<path style=" stroke:none;fill-rule:nonzero;fill:rgb(94.901961%,56.862748%,6.666667%);fill-opacity:1;" d="M 39.929688 22.636719 C 43.402344 22.636719 45.140625 24.882812 45.140625 29.371094 C 45.140625 31.808594 44.617188 33.648438 43.574219 34.894531 C 43.386719 35.121094 43.179688 35.316406 42.960938 35.5 L 45.417969 36.730469 L 45.414062 36.730469 L 44.542969 38.253906 L 41.34375 36.363281 C 40.8125 36.523438 40.226562 36.601562 39.59375 36.601562 C 37.886719 36.601562 36.613281 36.101562 35.769531 35.097656 C 34.847656 33.984375 34.386719 32.234375 34.386719 29.851562 C 34.386719 27.425781 34.90625 25.59375 35.949219 24.347656 C 36.902344 23.207031 38.226562 22.636719 39.929688 22.636719 Z M 29.296875 22.65625 C 30.539062 22.65625 31.667969 22.992188 32.683594 23.664062 L 32.167969 24.828125 C 31.296875 24.453125 30.4375 24.265625 29.59375 24.265625 C 28.90625 24.265625 28.378906 24.433594 28.007812 24.769531 C 27.640625 25.101562 27.410156 25.53125 27.410156 26.054688 C 27.410156 26.855469 27.976562 27.554688 29.019531 28.140625 C 29.300781 28.296875 29.667969 28.503906 30.042969 28.714844 L 30.121094 28.761719 C 30.132812 28.769531 30.148438 28.777344 30.160156 28.78125 L 30.238281 28.828125 C 30.25 28.835938 30.265625 28.84375 30.277344 28.851562 L 30.355469 28.894531 C 31.144531 29.34375 31.890625 29.777344 31.890625 29.777344 C 32.933594 30.527344 33.453125 31.324219 33.453125 32.644531 C 33.453125 33.792969 33.039062 34.738281 32.207031 35.476562 C 31.375 36.210938 30.261719 36.582031 28.863281 36.582031 C 27.554688 36.582031 26.285156 36.15625 25.058594 35.3125 L 25.632812 34.148438 C 26.6875 34.683594 27.644531 34.953125 28.503906 34.953125 C 29.308594 34.953125 29.941406 34.769531 30.394531 34.410156 C 30.851562 34.050781 31.125 33.546875 31.125 32.90625 C 31.125 32.101562 30.570312 31.410156 29.554688 30.832031 C 29.289062 30.6875 28.953125 30.496094 28.601562 30.296875 L 28.523438 30.25 C 28.382812 30.167969 28.238281 30.085938 28.097656 30.003906 L 28.019531 29.960938 C 27.335938 29.566406 26.742188 29.222656 26.742188 29.222656 C 25.726562 28.46875 25.21875 27.664062 25.21875 26.335938 C 25.21875 25.238281 25.597656 24.347656 26.355469 23.671875 C 27.113281 22.996094 28.09375 22.65625 29.296875 22.65625 Z M 49.222656 22.839844 L 49.222656 34.734375 L 53.441406 34.734375 L 53.441406 36.402344 L 47.082031 36.402344 L 47.082031 22.839844 Z M 55.785156 34.738281 L 55.785156 35.019531 L 55.320312 35.019531 L 55.320312 36.402344 L 54.964844 36.402344 L 54.964844 35.019531 L 54.484375 35.019531 L 54.484375 34.738281 Z M 56.640625 34.738281 L 57.085938 35.871094 L 57.496094 34.738281 L 57.996094 34.738281 L 57.996094 36.402344 L 57.664062 36.402344 L 57.664062 35.136719 L 57.199219 36.402344 L 56.957031 36.402344 L 56.492188 35.136719 L 56.472656 35.136719 L 56.472656 36.402344 L 56.15625 36.402344 L 56.15625 34.738281 Z M 39.714844 24.304688 C 37.667969 24.304688 36.640625 26.015625 36.640625 29.429688 C 36.640625 31.386719 36.914062 32.804688 37.457031 33.6875 C 37.957031 34.507812 38.742188 34.914062 39.8125 34.914062 C 41.859375 34.914062 42.882812 33.195312 42.882812 29.75 C 42.882812 27.820312 42.613281 26.414062 42.070312 25.53125 C 41.566406 24.714844 40.78125 24.304688 39.714844 24.304688 Z M 39.714844 24.304688 "/>
<path style=" stroke:none;fill-rule:nonzero;fill:rgb(0%,45.882353%,56.078434%);fill-opacity:1;" d="M 34.347656 0.839844 C 35.027344 -0.847656 37.402344 0.429688 38.324219 1.019531 C 38.546875 1.167969 38.808594 1.480469 39.066406 1.59375 C 39.46875 1.609375 39.875 1.644531 40.277344 1.660156 C 41.035156 1.839844 41.746094 1.988281 42.34375 2.332031 C 45.125 3.988281 46.933594 5.675781 48.597656 8.460938 C 48.953125 9.050781 49.132812 9.691406 49.421875 10.328125 C 49.824219 11.28125 50.277344 12.28125 50.746094 13.179688 C 50.957031 13.609375 51.117188 14.082031 51.410156 14.441406 C 51.523438 14.609375 51.84375 14.65625 52.039062 14.753906 C 52.570312 15.035156 53.21875 15.246094 53.71875 15.574219 C 54.65625 16.164062 55.5625 16.867188 56.386719 17.589844 C 56.691406 17.867188 56.902344 18.261719 57.191406 18.554688 L 57.191406 18.707031 C 56.933594 18.785156 56.675781 18.867188 56.417969 18.933594 C 55.851562 19.082031 55.351562 19.046875 54.800781 19.195312 C 54.460938 19.292969 54.042969 19.425781 53.6875 19.460938 C 53.703125 19.476562 53.71875 19.492188 53.71875 19.492188 C 53.929688 20.097656 55.058594 20.589844 55.578125 20.949219 C 56.207031 21.410156 56.789062 21.964844 57.257812 22.605469 C 57.417969 22.769531 57.582031 22.917969 57.742188 23.078125 C 57.855469 23.246094 57.886719 23.457031 58 23.605469 L 58 23.652344 C 57.875 23.609375 57.78125 23.523438 57.695312 23.433594 L 57.644531 23.378906 C 57.59375 23.324219 57.542969 23.273438 57.484375 23.226562 C 57.128906 22.980469 56.773438 22.6875 56.417969 22.457031 C 55.804688 22.066406 55.09375 21.835938 54.460938 21.441406 C 54.105469 21.210938 53.765625 20.949219 53.429688 20.6875 C 53.121094 20.457031 52.78125 20.015625 52.589844 19.6875 C 52.476562 19.507812 52.460938 19.292969 52.328125 19.164062 C 52.351562 18.945312 52.550781 18.878906 52.75 18.828125 L 52.796875 18.8125 C 52.867188 18.796875 52.933594 18.777344 52.992188 18.753906 C 53.832031 18.394531 54.832031 18.261719 56.125 18.296875 C 56.078125 17.964844 55.269531 17.558594 55.011719 17.359375 C 54.492188 16.984375 53.945312 16.589844 53.394531 16.246094 C 53.105469 16.066406 52.605469 15.933594 52.28125 15.789062 C 51.84375 15.605469 50.875 15.425781 50.632812 15.082031 C 50.222656 14.542969 49.929688 13.894531 49.640625 13.242188 L 49.5625 13.0625 C 49.539062 13.003906 49.511719 12.945312 49.484375 12.886719 C 49.148438 12.101562 48.726562 11.28125 48.386719 10.476562 C 48.210938 10.082031 48.128906 9.738281 47.933594 9.363281 C 46.753906 7.050781 45.011719 5.117188 42.894531 3.757812 C 42.199219 3.316406 41.425781 2.90625 40.570312 2.628906 C 40.082031 2.480469 39.503906 2.5625 38.984375 2.445312 L 38.644531 2.445312 C 38.355469 2.363281 38.113281 2.054688 37.886719 1.890625 C 37.386719 1.546875 36.886719 1.316406 36.285156 1.070312 C 36.078125 0.972656 35.480469 0.742188 35.269531 0.921875 C 35.140625 0.957031 35.074219 1.003906 35.042969 1.136719 C 34.914062 1.332031 35.027344 1.628906 35.109375 1.808594 C 35.351562 2.332031 35.691406 2.644531 35.996094 3.085938 C 36.269531 3.476562 36.609375 3.921875 36.804688 4.347656 C 37.222656 5.265625 37.417969 6.28125 37.804688 7.199219 C 37.949219 7.542969 38.179688 7.9375 38.386719 8.246094 C 38.566406 8.496094 38.886719 8.671875 38.984375 8.984375 C 39.179688 9.3125 38.695312 10.394531 38.582031 10.738281 C 38.160156 12.082031 38.242188 13.953125 38.726562 15.117188 C 38.734375 15.136719 38.742188 15.15625 38.753906 15.179688 L 38.777344 15.238281 C 38.957031 15.667969 39.144531 16.125 39.613281 16.246094 C 39.648438 16.214844 39.613281 16.230469 39.679688 16.214844 C 39.792969 15.3125 39.824219 14.441406 40.132812 13.738281 C 40.308594 13.296875 40.664062 12.984375 40.90625 12.625 C 41.070312 12.722656 41.070312 13.019531 41.167969 13.214844 C 41.375 13.722656 41.601562 14.277344 41.859375 14.789062 C 42.394531 15.835938 42.992188 16.851562 43.671875 17.769531 C 43.898438 18.097656 44.21875 18.457031 44.511719 18.753906 C 44.640625 18.867188 44.785156 18.933594 44.882812 19.082031 L 44.914062 19.082031 L 44.914062 19.128906 C 44.429688 18.949219 44.121094 18.441406 43.734375 18.148438 C 43.007812 17.589844 42.136719 16.753906 41.632812 15.953125 C 41.425781 15.492188 41.199219 15.050781 40.972656 14.589844 L 40.972656 14.558594 C 40.875 14.6875 40.90625 14.820312 40.859375 15.015625 C 40.648438 15.835938 40.8125 16.769531 40.082031 17.066406 C 39.261719 17.410156 38.644531 16.507812 38.386719 16.097656 C 37.5625 14.738281 37.335938 12.445312 37.917969 10.59375 C 38.046875 10.183594 38.066406 9.691406 38.289062 9.363281 C 38.242188 9.066406 38.015625 8.988281 37.886719 8.804688 C 37.660156 8.496094 37.464844 8.132812 37.289062 7.789062 C 36.949219 7.117188 36.707031 6.3125 36.449219 5.59375 C 36.335938 5.296875 36.304688 5.003906 36.191406 4.722656 C 35.996094 4.300781 35.640625 3.871094 35.367188 3.496094 C 34.996094 2.953125 33.914062 1.90625 34.347656 0.839844 Z M 39.648438 4.050781 C 39.691406 4.09375 39.742188 4.132812 39.796875 4.171875 L 39.863281 4.214844 C 39.949219 4.277344 40.03125 4.339844 40.082031 4.429688 C 40.164062 4.542969 40.179688 4.65625 40.277344 4.773438 C 40.277344 5.167969 40.164062 5.429688 39.9375 5.589844 C 39.9375 5.589844 39.921875 5.609375 39.90625 5.625 C 39.777344 5.363281 39.664062 5.101562 39.535156 4.839844 C 39.375 4.609375 39.148438 4.429688 39.015625 4.167969 L 38.984375 4.167969 L 38.984375 4.132812 C 39.179688 4.085938 39.375 4.050781 39.648438 4.050781 Z M 39.648438 4.050781 "/>
</g>
</svg>
