<?xml version="1.0" encoding="UTF-8"?>
<svg xmlns="http://www.w3.org/2000/svg" xmlns:xlink="http://www.w3.org/1999/xlink" width="76px" height="40px" viewBox="0 0 75 40" version="1.1">
<defs>
<radialGradient id="radial0" gradientUnits="userSpaceOnUse" cx="0.8366" cy="-125.810997" fx="0.8366" fy="-125.810997" r="363.056488" gradientTransform="matrix(0.135645,0,0,0.137185,22.40168,24.272059)">
<stop offset="0" style="stop-color:rgb(100%,100%,100%);stop-opacity:1;"/>
<stop offset="0.5" style="stop-color:rgb(29.803922%,41.960784%,59.215686%);stop-opacity:1;"/>
<stop offset="1" style="stop-color:rgb(13.72549%,12.156863%,12.54902%);stop-opacity:1;"/>
</radialGradient>
</defs>
<g id="surface1">
<path style=" stroke:none;fill-rule:nonzero;fill:url(#radial0);" d="M 75 19.941406 C 75 8.929688 58.210938 0 37.5 0 C 16.789062 0 0 8.929688 0 19.941406 C 0 30.953125 16.789062 39.882812 37.5 39.882812 C 58.210938 39.882812 75 30.953125 75 19.941406 Z M 75 19.941406 "/>
<path style=" stroke:none;fill-rule:nonzero;fill:rgb(38.039216%,50.588238%,71.372551%);fill-opacity:1;" d="M 73.535156 19.941406 C 73.535156 9.746094 57.402344 1.480469 37.5 1.480469 C 17.597656 1.480469 1.464844 9.746094 1.464844 19.941406 C 1.464844 30.136719 17.597656 38.398438 37.5 38.398438 C 57.402344 38.398438 73.535156 30.136719 73.535156 19.941406 Z M 73.535156 19.941406 "/>
<path style=" stroke:none;fill-rule:nonzero;fill:rgb(100%,100%,100%);fill-opacity:1;" d="M 44.796875 25.925781 C 44.796875 25.925781 46.582031 16.621094 46.582031 16.621094 C 46.992188 14.519531 46.640625 12.949219 45.585938 11.96875 C 44.5625 11.023438 42.804688 10.546875 40.222656 10.546875 L 37.117188 10.546875 L 38 5.925781 C 38.027344 5.75 38 5.570312 37.878906 5.421875 C 37.761719 5.273438 37.617188 5.214844 37.441406 5.214844 L 33.164062 5.214844 C 32.871094 5.214844 32.636719 5.421875 32.578125 5.6875 L 30.671875 15.554688 C 30.5 14.429688 30.085938 13.480469 29.382812 12.710938 C 28.125 11.257812 26.160156 10.519531 23.496094 10.519531 L 15.265625 10.519531 C 14.96875 10.519531 14.738281 10.726562 14.679688 10.992188 L 10.839844 31.023438 C 10.8125 31.199219 10.839844 31.378906 10.957031 31.527344 C 11.074219 31.675781 11.21875 31.734375 11.398438 31.734375 L 15.703125 31.734375 C 15.996094 31.734375 16.230469 31.527344 16.289062 31.257812 L 17.226562 26.429688 L 20.421875 26.429688 C 22.089844 26.429688 23.523438 26.25 24.609375 25.894531 C 25.75 25.511719 26.777344 24.890625 27.6875 24.03125 C 28.417969 23.347656 29.03125 22.578125 29.5 21.75 L 28.742188 25.75 C 28.710938 25.925781 28.742188 26.105469 28.859375 26.25 C 28.976562 26.398438 29.121094 26.460938 29.296875 26.460938 L 33.574219 26.460938 C 33.867188 26.460938 34.101562 26.25 34.160156 25.984375 L 36.269531 15.023438 L 39.199219 15.023438 C 40.460938 15.023438 40.8125 15.257812 40.929688 15.378906 C 41.015625 15.464844 41.191406 15.820312 40.984375 16.917969 L 39.289062 25.777344 C 39.257812 25.957031 39.289062 26.132812 39.40625 26.28125 C 39.523438 26.429688 39.667969 26.488281 39.84375 26.488281 L 44.238281 26.488281 C 44.5 26.398438 44.734375 26.191406 44.796875 25.925781 Z M 24.992188 18.222656 C 24.726562 19.613281 24.226562 20.621094 23.496094 21.183594 C 22.765625 21.75 21.5625 22.042969 19.980469 22.042969 L 18.078125 22.042969 L 19.453125 14.875 L 21.914062 14.875 C 23.730469 14.875 24.464844 15.257812 24.757812 15.585938 C 25.136719 16.058594 25.226562 16.976562 24.992188 18.222656 Z M 24.992188 18.222656 "/>
<path style=" stroke:none;fill-rule:nonzero;fill:rgb(100%,100%,100%);fill-opacity:1;" d="M 63.078125 12.710938 C 61.816406 11.257812 59.851562 10.519531 57.1875 10.519531 L 48.898438 10.519531 C 48.601562 10.519531 48.367188 10.726562 48.3125 10.992188 L 44.472656 30.992188 C 44.445312 31.171875 44.472656 31.347656 44.589844 31.496094 C 44.707031 31.644531 44.855469 31.703125 45.03125 31.703125 L 49.335938 31.703125 C 49.628906 31.703125 49.863281 31.496094 49.921875 31.230469 L 50.859375 26.398438 L 54.054688 26.398438 C 55.722656 26.398438 57.15625 26.222656 58.242188 25.867188 C 59.386719 25.480469 60.410156 24.859375 61.320312 24 C 62.078125 23.289062 62.726562 22.488281 63.195312 21.628906 C 63.664062 20.769531 64.015625 19.820312 64.21875 18.785156 C 64.71875 16.207031 64.335938 14.191406 63.078125 12.710938 Z M 58.59375 18.222656 C 58.328125 19.613281 57.832031 20.621094 57.101562 21.183594 C 56.367188 21.75 55.164062 22.042969 53.585938 22.042969 L 51.679688 22.042969 L 53.054688 14.875 L 55.515625 14.875 C 57.335938 14.875 58.066406 15.257812 58.359375 15.585938 C 58.769531 16.058594 58.859375 16.976562 58.59375 18.222656 Z M 58.59375 18.222656 "/>
<path style=" stroke:none;fill-rule:nonzero;fill:rgb(0%,0%,1.568628%);fill-opacity:1;" d="M 21.914062 14.28125 C 23.554688 14.28125 24.640625 14.578125 25.195312 15.199219 C 25.75 15.820312 25.867188 16.859375 25.578125 18.339844 C 25.28125 19.882812 24.695312 21.007812 23.847656 21.660156 C 22.996094 22.3125 21.710938 22.636719 19.980469 22.636719 L 17.371094 22.636719 L 18.984375 14.28125 Z M 11.425781 31.109375 L 15.734375 31.109375 L 16.757812 25.808594 L 20.449219 25.808594 C 22.089844 25.808594 23.40625 25.628906 24.460938 25.273438 C 25.515625 24.917969 26.453125 24.355469 27.335938 23.527344 C 28.066406 22.84375 28.652344 22.105469 29.09375 21.304688 C 29.53125 20.503906 29.851562 19.613281 30.03125 18.636719 C 30.5 16.265625 30.148438 14.429688 29.003906 13.097656 C 27.859375 11.761719 26.046875 11.109375 23.554688 11.109375 L 15.265625 11.109375 Z M 11.425781 31.109375 "/>
<path style=" stroke:none;fill-rule:nonzero;fill:rgb(0%,0%,1.568628%);fill-opacity:1;" d="M 33.195312 5.808594 L 37.46875 5.808594 L 36.445312 11.109375 L 40.253906 11.109375 C 42.65625 11.109375 44.296875 11.527344 45.203125 12.386719 C 46.113281 13.246094 46.375 14.605469 46.023438 16.503906 L 44.238281 25.808594 L 39.902344 25.808594 L 41.601562 16.949219 C 41.804688 15.941406 41.71875 15.257812 41.398438 14.902344 C 41.074219 14.546875 40.34375 14.339844 39.257812 14.339844 L 35.828125 14.339844 L 33.632812 25.808594 L 29.355469 25.808594 Z M 33.195312 5.808594 "/>
<path style=" stroke:none;fill-rule:nonzero;fill:rgb(0%,0%,1.568628%);fill-opacity:1;" d="M 55.515625 14.28125 C 57.15625 14.28125 58.242188 14.578125 58.796875 15.199219 C 59.355469 15.820312 59.472656 16.859375 59.179688 18.339844 C 58.886719 19.882812 58.300781 21.007812 57.453125 21.660156 C 56.601562 22.3125 55.3125 22.636719 53.585938 22.636719 L 50.976562 22.636719 L 52.585938 14.28125 Z M 45.03125 31.109375 L 49.335938 31.109375 L 50.359375 25.808594 L 54.050781 25.808594 C 55.691406 25.808594 57.011719 25.628906 58.066406 25.273438 C 59.121094 24.917969 60.058594 24.355469 60.9375 23.527344 C 61.667969 22.84375 62.253906 22.105469 62.695312 21.304688 C 63.132812 20.503906 63.457031 19.613281 63.632812 18.636719 C 64.101562 16.265625 63.75 14.429688 62.605469 13.097656 C 61.464844 11.761719 59.648438 11.109375 57.15625 11.109375 L 48.867188 11.109375 Z M 45.03125 31.109375 "/>
</g>
</svg>
