<?xml version="1.0" encoding="UTF-8"?>
<svg xmlns="http://www.w3.org/2000/svg" xmlns:xlink="http://www.w3.org/1999/xlink" width="40px" height="40px" viewBox="0 0 40 39" version="1.1">
<defs>
<linearGradient id="linear0" gradientUnits="userSpaceOnUse" x1="0.129594" y1="0.120394" x2="0.796388" y2="0.782009" gradientTransform="matrix(29.574219,0,0,29.027344,0.0234375,0.0117188)">
<stop offset="0" style="stop-color:rgb(21.960784%,49.411765%,72.156863%);stop-opacity:1;"/>
<stop offset="1" style="stop-color:rgb(21.176471%,41.176471%,58.039216%);stop-opacity:1;"/>
</linearGradient>
<linearGradient id="linear1" gradientUnits="userSpaceOnUse" x1="0.191275" y1="0.205792" x2="0.907415" y2="0.88429" gradientTransform="matrix(29.574219,0,0,29.027344,10.351562,9.839844)">
<stop offset="0" style="stop-color:rgb(100%,87.843137%,32.156863%);stop-opacity:1;"/>
<stop offset="1" style="stop-color:rgb(100%,76.470588%,19.215686%);stop-opacity:1;"/>
</linearGradient>
</defs>
<g id="surface1">
<path style=" stroke:none;fill-rule:nonzero;fill:url(#linear0);" d="M 19.832031 0.0117188 C 9.699219 0.0117188 10.332031 4.3125 10.332031 4.3125 L 10.34375 8.765625 L 20.011719 8.765625 L 20.011719 10.101562 L 6.503906 10.101562 C 6.503906 10.101562 0.0234375 9.382812 0.0234375 19.386719 C 0.0234375 29.394531 5.679688 29.039062 5.679688 29.039062 L 9.058594 29.039062 L 9.058594 24.394531 C 9.058594 24.394531 8.875 18.859375 14.625 18.859375 L 24.210938 18.859375 C 24.210938 18.859375 29.597656 18.941406 29.597656 13.761719 L 29.597656 5.195312 C 29.597656 5.195312 30.417969 0.0117188 19.832031 0.0117188 Z M 14.5 3.007812 C 15.460938 3.007812 16.238281 3.765625 16.238281 4.707031 C 16.238281 5.648438 15.460938 6.410156 14.5 6.410156 C 13.539062 6.410156 12.761719 5.648438 12.761719 4.707031 C 12.761719 3.765625 13.539062 3.007812 14.5 3.007812 Z M 14.5 3.007812 "/>
<path style=" stroke:none;fill-rule:nonzero;fill:url(#linear1);" d="M 20.117188 38.867188 C 30.25 38.867188 29.617188 34.566406 29.617188 34.566406 L 29.605469 30.113281 L 19.9375 30.113281 L 19.9375 28.773438 L 33.445312 28.773438 C 33.445312 28.773438 39.925781 29.492188 39.925781 19.488281 C 39.925781 9.484375 34.269531 9.839844 34.269531 9.839844 L 30.890625 9.839844 L 30.890625 14.480469 C 30.890625 14.480469 31.074219 20.019531 25.324219 20.019531 L 15.738281 20.019531 C 15.738281 20.019531 10.351562 19.933594 10.351562 25.117188 L 10.351562 33.683594 C 10.351562 33.683594 9.53125 38.867188 20.117188 38.867188 Z M 25.449219 35.871094 C 24.488281 35.871094 23.710938 35.109375 23.710938 34.167969 C 23.710938 33.226562 24.488281 32.464844 25.449219 32.464844 C 26.410156 32.464844 27.1875 33.226562 27.1875 34.167969 C 27.1875 35.109375 26.410156 35.871094 25.449219 35.871094 Z M 25.449219 35.871094 "/>
</g>
</svg>
