<?xml version="1.0" encoding="UTF-8"?>
<svg xmlns="http://www.w3.org/2000/svg" xmlns:xlink="http://www.w3.org/1999/xlink" width="40px" height="48px" viewBox="0 0 40 48" version="1.1">
<g id="surface1">
<path style=" stroke:none;fill-rule:nonzero;fill:rgb(93.333334%,29.803923%,17.254902%);fill-opacity:1;" d="M 19.972656 0 L 19.972656 6.976562 L 9.15625 17.695312 C 3.496094 23.382812 3.496094 32.535156 9.160156 38.328125 L 9.332031 38.503906 C 15.117188 44.34375 24.609375 44.34375 30.503906 38.503906 C 36.339844 32.828125 36.398438 23.550781 30.679688 17.699219 L 30.503906 17.519531 L 34.105469 13.953125 C 41.964844 21.738281 41.964844 34.230469 34.105469 42.070312 C 26.410156 49.859375 13.75 49.859375 5.894531 42.070312 C -1.886719 34.363281 -1.964844 21.988281 5.660156 14.1875 L 5.894531 13.953125 Z M 27.066406 7.894531 C 28.511719 7.894531 29.6875 9.058594 29.6875 10.492188 C 29.6875 11.925781 28.511719 13.085938 27.066406 13.085938 C 25.621094 13.085938 24.449219 11.925781 24.449219 10.492188 C 24.449219 9.058594 25.621094 7.894531 27.066406 7.894531 Z M 27.066406 7.894531 "/>
</g>
</svg>
