<?xml version="1.0" encoding="UTF-8"?>
<svg xmlns="http://www.w3.org/2000/svg" xmlns:xlink="http://www.w3.org/1999/xlink" width="53px" height="40px" viewBox="0 0 53 40" version="1.1">
<g id="surface1">
<path style=" stroke:none;fill-rule:nonzero;fill:rgb(25.490198%,80.392158%,32.156864%);fill-opacity:1;" d="M 47.90625 0 L 7.351562 0 L 0 7.515625 L 0 39.914062 L 45.648438 39.914062 L 53 32.398438 L 53 0 Z M 47.90625 0 "/>
<path style=" stroke:none;fill-rule:nonzero;fill:rgb(100%,100%,100%);fill-opacity:1;" d="M 19.761719 6.980469 C 23.210938 6.980469 25.632812 7.980469 27.003906 9.992188 C 28.394531 11.988281 29.082031 15.070312 29.082031 19.246094 C 29.082031 22 28.792969 24.214844 28.234375 25.894531 C 27.65625 27.59375 26.734375 28.886719 25.433594 29.773438 L 28.234375 34.410156 L 24.785156 36.054688 L 21.804688 31.050781 C 21.371094 31.179688 20.699219 31.253906 19.761719 31.253906 C 16.277344 31.253906 13.835938 30.292969 12.464844 28.371094 C 11.089844 26.449219 10.40625 23.402344 10.40625 19.265625 C 10.40625 15.109375 11.109375 12.023438 12.5 10.011719 C 13.890625 7.996094 16.3125 6.980469 19.761719 6.980469 Z M 37.355469 8.3125 L 37.355469 13.300781 L 41.980469 13.300781 L 41.980469 16.492188 L 37.355469 16.492188 L 37.355469 24.046875 C 37.355469 25.453125 37.464844 26.375 37.664062 26.820312 C 37.863281 27.28125 38.386719 27.503906 39.199219 27.503906 L 41.945312 27.390625 L 42.105469 30.382812 C 40.625 30.679688 39.488281 30.828125 38.691406 30.828125 C 36.796875 30.828125 35.496094 30.382812 34.789062 29.496094 C 34.085938 28.609375 33.726562 26.929688 33.726562 24.457031 L 33.726562 16.476562 L 31.160156 16.476562 L 31.160156 13.300781 L 33.726562 13.300781 L 33.726562 8.3125 Z M 19.828125 10.066406 C 17.738281 10.066406 16.296875 10.78125 15.503906 12.226562 C 14.726562 13.675781 14.332031 15.96875 14.332031 19.144531 C 14.332031 22.300781 14.710938 24.574219 15.464844 25.925781 C 16.222656 27.28125 17.683594 27.976562 19.828125 27.976562 C 21.972656 27.976562 23.414062 27.300781 24.171875 25.964844 C 24.910156 24.632812 25.289062 22.355469 25.289062 19.179688 C 25.289062 15.988281 24.910156 13.675781 24.136719 12.226562 C 23.359375 10.78125 21.917969 10.066406 19.828125 10.066406 Z M 19.828125 10.066406 "/>
</g>
</svg>
