<?xml version="1.0" encoding="UTF-8"?>
<svg version="1.1" xmlns="http://www.w3.org/2000/svg" width="449" height="447">
<path d="M0 0 C0.88167819 -0.00226556 1.76335638 -0.00453111 2.6717521 -0.00686532 C5.61403676 -0.01317476 8.55627501 -0.01237793 11.49856567 -0.0115509 C13.61304788 -0.01454427 15.72752955 -0.01794722 17.8420105 -0.02172852 C23.57755747 -0.03055394 29.31308953 -0.032906 35.04864264 -0.0335443 C38.63362756 -0.03425556 42.2186087 -0.03639129 45.80359268 -0.03904152 C58.31487519 -0.04828964 70.82614705 -0.05237701 83.33743286 -0.05158997 C94.99297513 -0.0509891 106.64847113 -0.0615441 118.30400169 -0.07733363 C128.31779093 -0.09041491 138.33156506 -0.09577362 148.34536278 -0.09513456 C154.32314247 -0.09487977 160.30088102 -0.09772036 166.27865219 -0.10831261 C171.90111329 -0.1180036 177.52349399 -0.11806585 183.14595795 -0.11079597 C185.20625806 -0.10975143 187.26656321 -0.11210527 189.32685471 -0.11815643 C192.1457315 -0.12589766 194.96433209 -0.12121746 197.78320312 -0.11352539 C198.59265755 -0.11866895 199.40211197 -0.12381252 200.23609531 -0.12911195 C210.89469062 -0.06512281 218.17943934 2.2549347 225.74514771 9.87199402 C232.82428831 17.73576843 234.16933587 25.03588703 234.1590271 35.26771545 C234.16348378 36.65103945 234.16348378 36.65103945 234.1680305 38.06230938 C234.17670476 41.15366528 234.17822466 44.24498239 234.17971802 47.33634949 C234.18434701 49.55230288 234.18937178 51.76825548 234.19476318 53.98420715 C234.20787947 60.00484993 234.21433039 66.02548155 234.21877384 72.04613638 C234.2217052 75.80698007 234.22581008 79.56782071 234.23027802 83.32866287 C234.24238371 93.74640943 234.25276736 104.16415384 234.25615311 114.58190727 C234.25637267 115.24815088 234.25659224 115.91439448 234.25681846 116.60082728 C234.25703674 117.26863681 234.25725501 117.93644634 234.25747991 118.62449253 C234.25792337 119.9776636 234.25836993 121.33083467 234.25881958 122.68400574 C234.25904101 123.355221 234.25926244 124.02643625 234.25949058 124.71799137 C234.26343935 135.5961395 234.28089771 146.47422068 234.3041791 157.35234295 C234.3279022 168.52722659 234.34009744 179.70208581 234.34152102 190.87699711 C234.34256975 197.14875408 234.34849229 203.42041653 234.36634064 209.69215012 C234.38279999 215.59038365 234.38498713 221.48845138 234.37620163 227.38669968 C234.37543017 229.55104516 234.37978824 231.71539949 234.38965988 233.8797226 C234.40234958 236.83526068 234.3965186 239.79020887 234.38607788 242.7457428 C234.39816249 244.02907354 234.39816249 244.02907354 234.41049123 245.33833015 C234.32226612 256.0233426 229.06580726 262.08649071 221.76858521 269.38371277 C210.78944179 276.3704404 199.30220294 275.70449789 186.7649231 275.65129089 C184.61530586 275.65671756 182.46569235 275.66384326 180.31608582 275.67253113 C174.50197383 275.6907036 168.68814706 275.68372167 162.87403035 275.67101479 C156.77510794 275.66085433 150.67620918 275.67028903 144.57728577 275.67655945 C134.33607623 275.68382753 124.09498225 275.67427069 113.85379028 275.65519714 C102.03341851 275.63343594 90.21332282 275.64047786 78.39295775 275.66250277 C68.22445575 275.68068756 58.0560366 275.68319984 47.88752359 275.67274809 C41.82304675 275.66652937 35.75869943 275.66563276 29.69423103 275.67889404 C23.99034596 275.69049651 18.28681482 275.68234646 12.58296776 275.65931702 C10.49651806 275.65405314 8.41003828 275.65550363 6.32360077 275.66436768 C-7.73340543 275.71855589 -20.48819679 275.7387048 -31.14157104 265.25871277 C-41.20048758 253.64077095 -39.28012634 236.51782218 -39.27194214 222.11784363 C-39.27793507 220.00586715 -39.28474236 217.89389285 -39.29229736 215.78192139 C-39.3098805 210.07545199 -39.31464931 204.36904266 -39.31592894 198.66254878 C-39.31735474 195.09242495 -39.32163233 191.52231619 -39.32692337 187.95219612 C-39.34539378 175.48396466 -39.35359718 163.01577582 -39.35202026 150.54753113 C-39.35081766 138.94469357 -39.37195113 127.34204165 -39.40350759 115.73925108 C-39.42968531 105.75674536 -39.44038702 95.77430027 -39.43910944 85.7917605 C-39.43860053 79.83853362 -39.4442459 73.88547212 -39.46546555 67.93227959 C-39.48487461 62.33511214 -39.48495397 56.73826754 -39.47043228 51.14108849 C-39.46834686 49.09290849 -39.47302906 47.04470813 -39.4851532 44.99656296 C-39.5622006 31.07435528 -39.13207851 18.79312096 -28.98141479 8.13371277 C-20.58832161 0.70686733 -10.79234717 -0.02053413 0 0 Z " fill="#FCFCFC" transform="translate(126.98141479492188,86.86628723144531)"/>
<path d="M0 0 C0.84802185 -0.00095673 1.6960437 -0.00191345 2.56976318 -0.00289917 C4.37203037 -0.00358033 6.17430001 -0.0017305 7.9765625 0.00244141 C10.68235096 0.00771118 13.38796727 0.00253609 16.09375 -0.00390625 C17.85416702 -0.00324391 19.61458394 -0.00195955 21.375 0 C22.16312073 -0.00202423 22.95124146 -0.00404846 23.76324463 -0.00613403 C31.39956864 0.02433494 38.80957034 0.62115886 46.484375 1.1328125 C46.484375 11.6928125 46.484375 22.2528125 46.484375 33.1328125 C30.34375308 34.28571407 30.34375308 34.28571407 22.25390625 34.265625 C21.37079269 34.26658173 20.48767914 34.26753845 19.57780457 34.26852417 C17.74384488 34.26919539 15.90988266 34.26741642 14.07592773 34.26318359 C11.26345615 34.25774791 8.4511391 34.2632007 5.63867188 34.26953125 C3.84374965 34.26887166 2.04882752 34.26759299 0.25390625 34.265625 C-0.58351608 34.26764923 -1.42093842 34.26967346 -2.28373718 34.27175903 C-5.61286137 34.2582261 -8.33533265 34.19290995 -11.515625 33.1328125 C-12.7758209 29.97326311 -12.64466949 26.74400932 -12.6484375 23.37890625 C-12.64972656 22.27740234 -12.65101563 21.17589844 -12.65234375 20.04101562 C-12.64847656 18.89568359 -12.64460938 17.75035156 -12.640625 16.5703125 C-12.64449219 15.42111328 -12.64835937 14.27191406 -12.65234375 13.08789062 C-12.65105469 11.98767578 -12.64976562 10.88746094 -12.6484375 9.75390625 C-12.64730957 8.7477124 -12.64618164 7.74151855 -12.64501953 6.70483398 C-12.515625 4.1328125 -12.515625 4.1328125 -11.515625 1.1328125 C-7.65990278 -0.15242824 -4.01748406 -0.01001009 0 0 Z " fill="#F1F1F1" transform="translate(402.515625,232.8671875)"/>
<path d="M0 0 C1.32467033 -0.00143509 1.32467033 -0.00143509 2.67610168 -0.00289917 C4.51006137 -0.00357039 6.34402359 -0.00179142 8.17797852 0.00244141 C10.9904501 0.00787709 13.80276715 0.0024243 16.61523438 -0.00390625 C18.4101566 -0.00324666 20.20507873 -0.00196799 22 0 C23.2561335 -0.00303635 23.2561335 -0.00303635 24.53764343 -0.00613403 C27.86676762 0.0073989 30.5892389 0.07271505 33.76953125 1.1328125 C35.02972715 4.29236189 34.89857574 7.52161568 34.90234375 10.88671875 C34.90427734 12.53897461 34.90427734 12.53897461 34.90625 14.22460938 C34.90238281 15.36994141 34.89851563 16.51527344 34.89453125 17.6953125 C34.90033203 19.41911133 34.90033203 19.41911133 34.90625 21.17773438 C34.90496094 22.27794922 34.90367188 23.37816406 34.90234375 24.51171875 C34.90121582 25.5179126 34.90008789 26.52410645 34.89892578 27.56079102 C34.76953125 30.1328125 34.76953125 30.1328125 33.76953125 33.1328125 C29.91380903 34.41805324 26.27139031 34.27563509 22.25390625 34.265625 C21.4058844 34.26658173 20.55786255 34.26753845 19.68414307 34.26852417 C17.88187588 34.26920533 16.07960624 34.2673555 14.27734375 34.26318359 C11.57155529 34.25791382 8.86593898 34.26308891 6.16015625 34.26953125 C4.39973923 34.26886891 2.63932231 34.26758455 0.87890625 34.265625 C0.09078552 34.26764923 -0.69733521 34.26967346 -1.50933838 34.27175903 C-9.14566239 34.24129006 -16.55566409 33.64446614 -24.23046875 33.1328125 C-24.23046875 22.5728125 -24.23046875 12.0128125 -24.23046875 1.1328125 C-8.08984683 -0.02008907 -8.08984683 -0.02008907 0 0 Z " fill="#F1F1F1" transform="translate(24.23046875,232.8671875)"/>
<path d="M0 0 C19.14 0 38.28 0 58 0 C59.36847142 2.73694284 59.12967921 4.93599247 59.1328125 7.99609375 C59.13474609 9.79336914 59.13474609 9.79336914 59.13671875 11.62695312 C59.13285156 12.88443359 59.12898438 14.14191406 59.125 15.4375 C59.13080078 17.31791992 59.13080078 17.31791992 59.13671875 19.23632812 C59.13542969 20.43580078 59.13414063 21.63527344 59.1328125 22.87109375 C59.13168457 23.97380615 59.13055664 25.07651855 59.12939453 26.21264648 C59 29 59 29 58 32 C54.14427778 33.28524074 50.50185906 33.14282259 46.484375 33.1328125 C45.63635315 33.13376923 44.7883313 33.13472595 43.91461182 33.13571167 C42.11234463 33.13639283 40.31007499 33.134543 38.5078125 33.13037109 C35.80202404 33.12510132 33.09640773 33.13027641 30.390625 33.13671875 C28.63020798 33.13605641 26.86979106 33.13477205 25.109375 33.1328125 C24.32125427 33.13483673 23.53313354 33.13686096 22.72113037 33.13894653 C15.08480636 33.10847756 7.67480466 32.51165364 0 32 C0 21.44 0 10.88 0 0 Z " fill="#F5F5F5" transform="translate(0,131)"/>
<path d="M0 0 C19.14 0 38.28 0 58 0 C58 10.56 58 21.12 58 32 C41.85937808 33.15290157 41.85937808 33.15290157 33.76953125 33.1328125 C32.88641769 33.13376923 32.00330414 33.13472595 31.09342957 33.13571167 C29.25946988 33.13638289 27.42550766 33.13460392 25.59155273 33.13037109 C22.77908115 33.12493541 19.9667641 33.1303882 17.15429688 33.13671875 C15.35937465 33.13605916 13.56445252 33.13478049 11.76953125 33.1328125 C10.93210892 33.13483673 10.09468658 33.13686096 9.23188782 33.13894653 C5.90276363 33.1254136 3.18029235 33.06009745 0 32 C-1.2601959 28.84045061 -1.12904449 25.61119682 -1.1328125 22.24609375 C-1.13410156 21.14458984 -1.13539063 20.04308594 -1.13671875 18.90820312 C-1.13285156 17.76287109 -1.12898438 16.61753906 -1.125 15.4375 C-1.12886719 14.28830078 -1.13273437 13.13910156 -1.13671875 11.95507812 C-1.13542969 10.85486328 -1.13414062 9.75464844 -1.1328125 8.62109375 C-1.13168457 7.6148999 -1.13055664 6.60870605 -1.12939453 5.57202148 C-1 3 -1 3 0 0 Z " fill="#F6F6F6" transform="translate(391,131)"/>
<path d="M0 0 C10.56 0 21.12 0 32 0 C32.59285655 14.00623608 33.10212545 27.98076164 33.125 42 C33.12951172 43.15604736 33.13402344 44.31209473 33.13867188 45.50317383 C33.13673828 46.57462646 33.13480469 47.6460791 33.1328125 48.75 C33.13168457 49.69359375 33.13055664 50.6371875 33.12939453 51.609375 C33 54 33 54 32 57 C28.80087999 58.06637334 26.4862254 58.12921706 23.125 58.1328125 C21.97515625 58.13410156 20.8253125 58.13539062 19.640625 58.13671875 C17.83851563 58.13091797 17.83851563 58.13091797 16 58.125 C14.79859375 58.12886719 13.5971875 58.13273437 12.359375 58.13671875 C11.20953125 58.13542969 10.0596875 58.13414063 8.875 58.1328125 C7.29332031 58.13112061 7.29332031 58.13112061 5.6796875 58.12939453 C3 58 3 58 0 57 C-1.24254006 53.87131808 -1.12902828 50.69474788 -1.1328125 47.36328125 C-1.13474609 46.23954102 -1.13667969 45.11580078 -1.13867188 43.95800781 C-1.13416016 42.75499023 -1.12964844 41.55197266 -1.125 40.3125 C-1.12306641 39.07983398 -1.12113281 37.84716797 -1.11914062 36.57714844 C-1.06299669 24.365843 -0.56733383 12.1976774 0 0 Z " fill="#F5F5F5" transform="translate(292,0)"/>
<path d="M0 0 C10.56 0 21.12 0 32 0 C32.59285655 14.00623608 33.10212545 27.98076164 33.125 42 C33.12951172 43.15604736 33.13402344 44.31209473 33.13867188 45.50317383 C33.13673828 46.57462646 33.13480469 47.6460791 33.1328125 48.75 C33.13168457 49.69359375 33.13055664 50.6371875 33.12939453 51.609375 C33 54 33 54 32 57 C28.80087999 58.06637334 26.4862254 58.12921706 23.125 58.1328125 C21.97515625 58.13410156 20.8253125 58.13539062 19.640625 58.13671875 C17.83851563 58.13091797 17.83851563 58.13091797 16 58.125 C14.79859375 58.12886719 13.5971875 58.13273437 12.359375 58.13671875 C11.20953125 58.13542969 10.0596875 58.13414063 8.875 58.1328125 C7.29332031 58.13112061 7.29332031 58.13112061 5.6796875 58.12939453 C3 58 3 58 0 57 C-1.24254006 53.87131808 -1.12902828 50.69474788 -1.1328125 47.36328125 C-1.13474609 46.23954102 -1.13667969 45.11580078 -1.13867188 43.95800781 C-1.13416016 42.75499023 -1.12964844 41.55197266 -1.125 40.3125 C-1.12306641 39.07983398 -1.12113281 37.84716797 -1.11914062 36.57714844 C-1.06299669 24.365843 -0.56733383 12.1976774 0 0 Z " fill="#F5F5F5" transform="translate(237,0)"/>
<path d="M0 0 C0.84802185 -0.00095673 1.6960437 -0.00191345 2.56976318 -0.00289917 C4.37203037 -0.00358033 6.17430001 -0.0017305 7.9765625 0.00244141 C10.68235096 0.00771118 13.38796727 0.00253609 16.09375 -0.00390625 C17.85416702 -0.00324391 19.61458394 -0.00195955 21.375 0 C22.16312073 -0.00202423 22.95124146 -0.00404846 23.76324463 -0.00613403 C31.39956864 0.02433494 38.80957034 0.62115886 46.484375 1.1328125 C46.484375 11.3628125 46.484375 21.5928125 46.484375 32.1328125 C30.34375308 33.28571407 30.34375308 33.28571407 22.25390625 33.265625 C21.37079269 33.26658173 20.48767914 33.26753845 19.57780457 33.26852417 C17.74384488 33.26919539 15.90988266 33.26741642 14.07592773 33.26318359 C11.26345615 33.25774791 8.4511391 33.2632007 5.63867188 33.26953125 C3.84374965 33.26887166 2.04882752 33.26759299 0.25390625 33.265625 C-0.58351608 33.26764923 -1.42093842 33.26967346 -2.28373718 33.27175903 C-5.61286137 33.2582261 -8.33533265 33.19290995 -11.515625 32.1328125 C-12.74245492 29.03222257 -12.64458107 25.89848626 -12.6484375 22.59765625 C-12.64972656 21.54126953 -12.65101563 20.48488281 -12.65234375 19.39648438 C-12.64847656 18.29884766 -12.64460938 17.20121094 -12.640625 16.0703125 C-12.64449219 14.96880859 -12.64835937 13.86730469 -12.65234375 12.73242188 C-12.65105469 11.67732422 -12.64976562 10.62222656 -12.6484375 9.53515625 C-12.64730957 8.57085693 -12.64618164 7.60655762 -12.64501953 6.61303711 C-12.515625 4.1328125 -12.515625 4.1328125 -11.515625 1.1328125 C-7.65990278 -0.15242824 -4.01748406 -0.01001009 0 0 Z " fill="#F1F1F1" transform="translate(402.515625,181.8671875)"/>
<path d="M0 0 C1.32467033 -0.00143509 1.32467033 -0.00143509 2.67610168 -0.00289917 C4.51006137 -0.00357039 6.34402359 -0.00179142 8.17797852 0.00244141 C10.9904501 0.00787709 13.80276715 0.0024243 16.61523438 -0.00390625 C18.4101566 -0.00324666 20.20507873 -0.00196799 22 0 C23.2561335 -0.00303635 23.2561335 -0.00303635 24.53764343 -0.00613403 C27.86676762 0.0073989 30.5892389 0.07271505 33.76953125 1.1328125 C34.99636117 4.23340243 34.89848732 7.36713874 34.90234375 10.66796875 C34.90427734 12.25254883 34.90427734 12.25254883 34.90625 13.86914062 C34.90238281 14.96677734 34.89851563 16.06441406 34.89453125 17.1953125 C34.90033203 18.84756836 34.90033203 18.84756836 34.90625 20.53320312 C34.90496094 21.58830078 34.90367188 22.64339844 34.90234375 23.73046875 C34.90121582 24.69476807 34.90008789 25.65906738 34.89892578 26.65258789 C34.76953125 29.1328125 34.76953125 29.1328125 33.76953125 32.1328125 C29.91380903 33.41805324 26.27139031 33.27563509 22.25390625 33.265625 C21.4058844 33.26658173 20.55786255 33.26753845 19.68414307 33.26852417 C17.88187588 33.26920533 16.07960624 33.2673555 14.27734375 33.26318359 C11.57155529 33.25791382 8.86593898 33.26308891 6.16015625 33.26953125 C4.39973923 33.26886891 2.63932231 33.26758455 0.87890625 33.265625 C0.09078552 33.26764923 -0.69733521 33.26967346 -1.50933838 33.27175903 C-9.14566239 33.24129006 -16.55566409 32.64446614 -24.23046875 32.1328125 C-24.23046875 21.9028125 -24.23046875 11.6728125 -24.23046875 1.1328125 C-8.08984683 -0.02008907 -8.08984683 -0.02008907 0 0 Z " fill="#F1F1F1" transform="translate(24.23046875,181.8671875)"/>
<path d="M0 0 C1.19818359 -0.00128906 2.39636719 -0.00257813 3.63085938 -0.00390625 C4.88833984 -0.00003906 6.14582031 0.00382812 7.44140625 0.0078125 C8.69501953 0.00394531 9.94863281 0.00007813 11.24023438 -0.00390625 C13.03944336 -0.00197266 13.03944336 -0.00197266 14.875 0 C16.5290686 0.00169189 16.5290686 0.00169189 18.21655273 0.00341797 C21.00390625 0.1328125 21.00390625 0.1328125 24.00390625 1.1328125 C25.1364423 4.06022687 25.13261151 6.93114925 25.13671875 10.04296875 C25.13865234 11.02080322 25.14058594 11.9986377 25.14257812 13.00610352 C25.13806641 14.05854248 25.13355469 15.11098145 25.12890625 16.1953125 C25.12697266 17.28191162 25.12503906 18.36851074 25.12304688 19.48803711 C25.05859877 32.04915123 24.52953587 44.58340529 24.00390625 57.1328125 C13.44390625 57.1328125 2.88390625 57.1328125 -7.99609375 57.1328125 C-8.59954463 43.47973628 -9.0988426 29.86215236 -9.12109375 16.1953125 C-9.12786133 14.45544067 -9.12786133 14.45544067 -9.13476562 12.68041992 C-9.13283203 11.60381104 -9.13089844 10.52720215 -9.12890625 9.41796875 C-9.12721436 7.99303101 -9.12721436 7.99303101 -9.12548828 6.53930664 C-8.99609375 4.1328125 -8.99609375 4.1328125 -7.99609375 1.1328125 C-5.25915091 -0.23565892 -3.06010128 0.00313329 0 0 Z " fill="#F5F5F5" transform="translate(299.99609375,389.8671875)"/>
<path d="M0 0 C1.19818359 -0.00128906 2.39636719 -0.00257813 3.63085938 -0.00390625 C4.88833984 -0.00003906 6.14582031 0.00382812 7.44140625 0.0078125 C8.69501953 0.00394531 9.94863281 0.00007813 11.24023438 -0.00390625 C13.03944336 -0.00197266 13.03944336 -0.00197266 14.875 0 C16.5290686 0.00169189 16.5290686 0.00169189 18.21655273 0.00341797 C21.00390625 0.1328125 21.00390625 0.1328125 24.00390625 1.1328125 C25.1364423 4.06022687 25.13261151 6.93114925 25.13671875 10.04296875 C25.13865234 11.02080322 25.14058594 11.9986377 25.14257812 13.00610352 C25.13806641 14.05854248 25.13355469 15.11098145 25.12890625 16.1953125 C25.12697266 17.28191162 25.12503906 18.36851074 25.12304688 19.48803711 C25.05859877 32.04915123 24.52953587 44.58340529 24.00390625 57.1328125 C13.44390625 57.1328125 2.88390625 57.1328125 -7.99609375 57.1328125 C-8.59954463 43.47973628 -9.0988426 29.86215236 -9.12109375 16.1953125 C-9.12786133 14.45544067 -9.12786133 14.45544067 -9.13476562 12.68041992 C-9.13283203 11.60381104 -9.13089844 10.52720215 -9.12890625 9.41796875 C-9.12721436 7.99303101 -9.12721436 7.99303101 -9.12548828 6.53930664 C-8.99609375 4.1328125 -8.99609375 4.1328125 -7.99609375 1.1328125 C-5.25915091 -0.23565892 -3.06010128 0.00313329 0 0 Z " fill="#F5F5F5" transform="translate(244.99609375,389.8671875)"/>
<path d="M0 0 C0.84802185 -0.00095673 1.6960437 -0.00191345 2.56976318 -0.00289917 C4.37203037 -0.00358033 6.17430001 -0.0017305 7.9765625 0.00244141 C10.68235096 0.00771118 13.38796727 0.00253609 16.09375 -0.00390625 C17.85416702 -0.00324391 19.61458394 -0.00195955 21.375 0 C22.16312073 -0.00202423 22.95124146 -0.00404846 23.76324463 -0.00613403 C31.39956864 0.02433494 38.80957034 0.62115886 46.484375 1.1328125 C46.484375 11.3628125 46.484375 21.5928125 46.484375 32.1328125 C27.344375 32.1328125 8.204375 32.1328125 -11.515625 32.1328125 C-12.85779939 29.44846373 -12.64524185 27.35778116 -12.6484375 24.35546875 C-12.64972656 23.20240234 -12.65101563 22.04933594 -12.65234375 20.86132812 C-12.64847656 19.65154297 -12.64460938 18.44175781 -12.640625 17.1953125 C-12.64449219 15.98939453 -12.64835937 14.78347656 -12.65234375 13.54101562 C-12.65105469 12.38666016 -12.64976562 11.23230469 -12.6484375 10.04296875 C-12.64730957 8.98215088 -12.64618164 7.92133301 -12.64501953 6.82836914 C-12.515625 4.1328125 -12.515625 4.1328125 -11.515625 1.1328125 C-7.65990278 -0.15242824 -4.01748406 -0.01001009 0 0 Z " fill="#F5F5F5" transform="translate(402.515625,284.8671875)"/>
<path d="M0 0 C1.32467033 -0.00143509 1.32467033 -0.00143509 2.67610168 -0.00289917 C4.51006137 -0.00357039 6.34402359 -0.00179142 8.17797852 0.00244141 C10.9904501 0.00787709 13.80276715 0.0024243 16.61523438 -0.00390625 C18.4101566 -0.00324666 20.20507873 -0.00196799 22 0 C23.2561335 -0.00303635 23.2561335 -0.00303635 24.53764343 -0.00613403 C27.86676762 0.0073989 30.5892389 0.07271505 33.76953125 1.1328125 C34.99636117 4.23340243 34.89848732 7.36713874 34.90234375 10.66796875 C34.90427734 12.25254883 34.90427734 12.25254883 34.90625 13.86914062 C34.90238281 14.96677734 34.89851563 16.06441406 34.89453125 17.1953125 C34.90033203 18.84756836 34.90033203 18.84756836 34.90625 20.53320312 C34.90496094 21.58830078 34.90367188 22.64339844 34.90234375 23.73046875 C34.90121582 24.69476807 34.90008789 25.65906738 34.89892578 26.65258789 C34.76953125 29.1328125 34.76953125 29.1328125 33.76953125 32.1328125 C14.62953125 32.1328125 -4.51046875 32.1328125 -24.23046875 32.1328125 C-24.23046875 21.9028125 -24.23046875 11.6728125 -24.23046875 1.1328125 C-8.08984683 -0.02008907 -8.08984683 -0.02008907 0 0 Z " fill="#F5F5F5" transform="translate(24.23046875,284.8671875)"/>
<path d="M0 0 C10.23 0 20.46 0 31 0 C31.59285655 14.00623608 32.10212545 27.98076164 32.125 42 C32.12951172 43.15604736 32.13402344 44.31209473 32.13867188 45.50317383 C32.13673828 46.57462646 32.13480469 47.6460791 32.1328125 48.75 C32.13168457 49.69359375 32.13055664 50.6371875 32.12939453 51.609375 C32 54 32 54 31 57 C27.86108918 58.04630361 25.63706954 58.12914394 22.34375 58.1328125 C21.23902344 58.13410156 20.13429687 58.13539062 18.99609375 58.13671875 C17.84238281 58.13285156 16.68867188 58.12898438 15.5 58.125 C13.76943359 58.13080078 13.76943359 58.13080078 12.00390625 58.13671875 C10.34681641 58.13478516 10.34681641 58.13478516 8.65625 58.1328125 C7.13741211 58.13112061 7.13741211 58.13112061 5.58789062 58.12939453 C3 58 3 58 0 57 C-1.24254006 53.87131808 -1.12902828 50.69474788 -1.1328125 47.36328125 C-1.13474609 46.23954102 -1.13667969 45.11580078 -1.13867188 43.95800781 C-1.13416016 42.75499023 -1.12964844 41.55197266 -1.125 40.3125 C-1.12306641 39.07983398 -1.12113281 37.84716797 -1.11914062 36.57714844 C-1.06299669 24.365843 -0.56733383 12.1976774 0 0 Z " fill="#F4F4F4" transform="translate(182,0)"/>
<path d="M0 0 C10.23 0 20.46 0 31 0 C31.59285655 14.00623608 32.10212545 27.98076164 32.125 42 C32.12951172 43.15604736 32.13402344 44.31209473 32.13867188 45.50317383 C32.13673828 46.57462646 32.13480469 47.6460791 32.1328125 48.75 C32.13168457 49.69359375 32.13055664 50.6371875 32.12939453 51.609375 C32 54 32 54 31 57 C27.86108918 58.04630361 25.63706954 58.12914394 22.34375 58.1328125 C21.23902344 58.13410156 20.13429687 58.13539062 18.99609375 58.13671875 C17.84238281 58.13285156 16.68867188 58.12898438 15.5 58.125 C13.76943359 58.13080078 13.76943359 58.13080078 12.00390625 58.13671875 C10.34681641 58.13478516 10.34681641 58.13478516 8.65625 58.1328125 C7.13741211 58.13112061 7.13741211 58.13112061 5.58789062 58.12939453 C3 58 3 58 0 57 C-1.24254006 53.87131808 -1.12902828 50.69474788 -1.1328125 47.36328125 C-1.13474609 46.23954102 -1.13667969 45.11580078 -1.13867188 43.95800781 C-1.13416016 42.75499023 -1.12964844 41.55197266 -1.125 40.3125 C-1.12306641 39.07983398 -1.12113281 37.84716797 -1.11914062 36.57714844 C-1.06299669 24.365843 -0.56733383 12.1976774 0 0 Z " fill="#F4F4F4" transform="translate(127,0)"/>
<path d="M0 0 C1.15306641 -0.00128906 2.30613281 -0.00257813 3.49414062 -0.00390625 C4.70392578 -0.00003906 5.91371094 0.00382812 7.16015625 0.0078125 C8.36607422 0.00394531 9.57199219 0.00007813 10.81445312 -0.00390625 C12.54598633 -0.00197266 12.54598633 -0.00197266 14.3125 0 C15.37331787 0.00112793 16.43413574 0.00225586 17.52709961 0.00341797 C20.22265625 0.1328125 20.22265625 0.1328125 23.22265625 1.1328125 C24.3551923 4.06022687 24.35136151 6.93114925 24.35546875 10.04296875 C24.35740234 11.02080322 24.35933594 11.9986377 24.36132812 13.00610352 C24.35681641 14.05854248 24.35230469 15.11098145 24.34765625 16.1953125 C24.34572266 17.28191162 24.34378906 18.36851074 24.34179688 19.48803711 C24.27734877 32.04915123 23.74828587 44.58340529 23.22265625 57.1328125 C12.99265625 57.1328125 2.76265625 57.1328125 -7.77734375 57.1328125 C-8.38079463 43.47973628 -8.8800926 29.86215236 -8.90234375 16.1953125 C-8.90911133 14.45544067 -8.90911133 14.45544067 -8.91601562 12.68041992 C-8.91408203 11.60381104 -8.91214844 10.52720215 -8.91015625 9.41796875 C-8.90846436 7.99303101 -8.90846436 7.99303101 -8.90673828 6.53930664 C-8.77734375 4.1328125 -8.77734375 4.1328125 -7.77734375 1.1328125 C-5.09299498 -0.20936189 -3.00231241 0.00319565 0 0 Z " fill="#F5F5F5" transform="translate(189.77734375,389.8671875)"/>
<path d="M0 0 C1.15306641 -0.00128906 2.30613281 -0.00257813 3.49414062 -0.00390625 C4.70392578 -0.00003906 5.91371094 0.00382812 7.16015625 0.0078125 C8.36607422 0.00394531 9.57199219 0.00007813 10.81445312 -0.00390625 C12.54598633 -0.00197266 12.54598633 -0.00197266 14.3125 0 C15.37331787 0.00112793 16.43413574 0.00225586 17.52709961 0.00341797 C20.22265625 0.1328125 20.22265625 0.1328125 23.22265625 1.1328125 C24.3551923 4.06022687 24.35136151 6.93114925 24.35546875 10.04296875 C24.35740234 11.02080322 24.35933594 11.9986377 24.36132812 13.00610352 C24.35681641 14.05854248 24.35230469 15.11098145 24.34765625 16.1953125 C24.34572266 17.28191162 24.34378906 18.36851074 24.34179688 19.48803711 C24.27734877 32.04915123 23.74828587 44.58340529 23.22265625 57.1328125 C12.99265625 57.1328125 2.76265625 57.1328125 -7.77734375 57.1328125 C-8.38079463 43.47973628 -8.8800926 29.86215236 -8.90234375 16.1953125 C-8.90911133 14.45544067 -8.90911133 14.45544067 -8.91601562 12.68041992 C-8.91408203 11.60381104 -8.91214844 10.52720215 -8.91015625 9.41796875 C-8.90846436 7.99303101 -8.90846436 7.99303101 -8.90673828 6.53930664 C-8.77734375 4.1328125 -8.77734375 4.1328125 -7.77734375 1.1328125 C-5.09299498 -0.20936189 -3.00231241 0.00319565 0 0 Z " fill="#F5F5F5" transform="translate(134.77734375,389.8671875)"/>
<path d="M0 0 C0.98613281 0.05800781 1.97226562 0.11601562 2.98828125 0.17578125 C4.39557495 0.25856323 4.39557495 0.25856323 5.83129883 0.34301758 C7.05369263 0.4149231 7.05369263 0.4149231 8.30078125 0.48828125 C11.77122207 8.62781425 14.53216641 16.97162848 17.24731445 25.38452148 C17.99084887 27.683721 18.74418134 29.97956074 19.49804688 32.27539062 C19.97846118 33.75631701 20.45829917 35.23743051 20.9375 36.71875 C21.16040207 37.39495895 21.38330414 38.07116791 21.61296082 38.76786804 C22.97466556 43.02496133 23.78431982 47.06918962 24.30078125 51.48828125 C21.66078125 51.48828125 19.02078125 51.48828125 16.30078125 51.48828125 C13.30078125 44.98828125 13.30078125 44.98828125 13.30078125 40.48828125 C6.04078125 40.48828125 -1.21921875 40.48828125 -8.69921875 40.48828125 C-9.35921875 43.45828125 -10.01921875 46.42828125 -10.69921875 49.48828125 C-11.02921875 50.14828125 -11.35921875 50.80828125 -11.69921875 51.48828125 C-14.00921875 51.48828125 -16.31921875 51.48828125 -18.69921875 51.48828125 C-18.38293081 42.30662834 -15.60700014 34.24131756 -12.66162109 25.62768555 C-11.82156132 23.16800031 -10.99948924 20.70283014 -10.1796875 18.23632812 C-9.64817884 16.6572005 -9.11566195 15.07841179 -8.58203125 13.5 C-8.33816681 12.76972092 -8.09430237 12.03944183 -7.8430481 11.28703308 C-4.22162424 0.76368022 -4.22162424 0.76368022 0 0 Z " fill="#141214" transform="translate(287.69921875,199.51171875)"/>
<path d="M0 0 C25.15151515 0 25.15151515 0 32.5 6.0625 C34.84004719 10.64509241 34.72270071 14.96277606 34 20 C32.1485786 25.14808501 28.72731843 29.64117646 23.796875 32.09765625 C18.65201407 33.7575206 13.3601419 33.10828569 8 33 C8 38.94 8 44.88 8 51 C5.36 51 2.72 51 0 51 C0 34.17 0 17.34 0 0 Z " fill="#111115" transform="translate(186,200)"/>
<path d="M0 0 C0.81597656 -0.01224609 1.63195312 -0.02449219 2.47265625 -0.03710938 C3.65794922 -0.04000977 3.65794922 -0.04000977 4.8671875 -0.04296875 C5.5876123 -0.04707764 6.30803711 -0.05118652 7.05029297 -0.05541992 C9.42938021 0.22313878 11.05521855 1.01097118 13.125 2.1875 C13.125 4.8275 13.125 7.4675 13.125 10.1875 C12.62742187 10.03023437 12.12984375 9.87296875 11.6171875 9.7109375 C8.16936159 8.98678598 4.75839419 8.88331163 1.25 8.8125 C0.55519531 8.77511719 -0.13960937 8.73773438 -0.85546875 8.69921875 C-4.78744477 8.63257509 -7.28071724 9.11312056 -10.296875 11.55078125 C-14.67129424 16.02461911 -14.99698491 20.00412004 -15.1875 26.0625 C-15.07062373 32.34265147 -14.1556807 37.23982778 -10.21875 42.328125 C-7.08061362 44.8177132 -4.57714819 44.99837242 -0.625 45.4375 C1.6025 45.685 3.83 45.9325 6.125 46.1875 C6.125 40.5775 6.125 34.9675 6.125 29.1875 C2.495 29.1875 -1.135 29.1875 -4.875 29.1875 C-4.875 27.2075 -4.875 25.2275 -4.875 23.1875 C1.065 23.1875 7.005 23.1875 13.125 23.1875 C13.125 32.0975 13.125 41.0075 13.125 50.1875 C4.98759848 53.23902557 -2.55163067 55.03502356 -11.12109375 52.53125 C-16.78261806 49.60591895 -21.37810726 43.98883792 -23.875 38.1875 C-24.34172438 34.63704767 -24.29121592 31.07808996 -24.3125 27.5 C-24.34537109 26.54416016 -24.37824219 25.58832031 -24.41210938 24.60351562 C-24.46435505 17.6358419 -23.05547766 12.80471222 -18.875 7.1875 C-16.70703125 5.03125 -16.70703125 5.03125 -14.6875 3.6875 C-14.01332031 3.2234375 -13.33914062 2.759375 -12.64453125 2.28125 C-8.52116846 -0.26740691 -4.72970741 0.00370087 0 0 Z " fill="#0F0E12" transform="translate(250.875,198.8125)"/>
<path d="M0 0 C9.57 0 19.14 0 29 0 C29 1.98 29 3.96 29 6 C22.07 6 15.14 6 8 6 C8 11.28 8 16.56 8 22 C14.6 22 21.2 22 28 22 C28 23.98 28 25.96 28 28 C21.07 28 14.14 28 7 28 C7 35.59 7 43.18 7 51 C4.69 51 2.38 51 0 51 C0 34.17 0 17.34 0 0 Z " fill="#050508" transform="translate(144,200)"/>
<path d="M0 0 C12.05357143 -0.66964286 12.05357143 -0.66964286 15.75 1.9375 C18.40182537 5.54692898 18.58728582 7.46400341 18.40625 11.81640625 C17.94405994 14.30067784 17.44555566 15.91540297 16 18 C10.84542476 20.83101023 5.72880165 20.13804341 0 20 C0 13.4 0 6.8 0 0 Z " fill="#FDFCF9" transform="translate(194,206)"/>
<path d="M0 0 C0.99 0.33 1.98 0.66 3 1 C4.03784242 3.35164294 4.86456791 5.55929137 5.625 8 C5.84373779 8.67683838 6.06247559 9.35367676 6.2878418 10.05102539 C7.84246367 15.03854746 8.72464849 19.76832137 9 25 C3.72 25 -1.56 25 -7 25 C-3.57142857 3.57142857 -3.57142857 3.57142857 0 0 Z " fill="#E3E5E1" transform="translate(289,208)"/>
<path d="M0 0 C0.66 0.33 1.32 0.66 2 1 C0.4114658 5.28904235 -2.43127368 7.32345526 -6 10 C-6.66 10 -7.32 10 -8 10 C-8.66 11.32 -9.32 12.64 -10 14 C-10.33 13.34 -10.66 12.68 -11 12 C-7.72469104 7.36279281 -4.69564393 3.31457218 0 0 Z " fill="#BDBDBD" transform="translate(103,91)"/>
</svg>
