<?xml version="1.0" encoding="UTF-8"?>
<svg version="1.1" xmlns="http://www.w3.org/2000/svg" width="128" height="128">
<path d="M0 0 C10.065 -0.0825 20.13 -0.165 30.5 -0.25 C33.64337891 -0.28641602 36.78675781 -0.32283203 40.02539062 -0.36035156 C62.55662291 -0.51393875 83.70374982 0.96520884 100.8203125 17.6328125 C112.24661539 30.04202317 116.40131032 44.51482359 116.20703125 61.1875 C115.21694561 79.42002039 108.24059239 93.76303193 94.8125 105.9921875 C79.44605679 118.77926345 61.19847885 120 42 120 C42 108.12 42 96.24 42 84 C50.415 83.01 50.415 83.01 59 82 C66.27146176 79.84253332 70.96703055 77.55357536 75 71 C78.31346258 64.37307483 78.14578057 55.53509556 76.34765625 48.41796875 C74.19137613 43.57790652 70.75055843 40.30818093 66 38 C56.66824229 35.09838702 56.66824229 35.09838702 37 34 C37 62.05 37 90.1 37 119 C24.79 119 12.58 119 0 119 C0 79.73 0 40.46 0 0 Z " fill="#4894B8" transform="translate(6,6)"/>
</svg>
