<svg xmlns="http://www.w3.org/2000/svg" viewBox="0 0 900 620"><rect width="900" height="620" fill="#eee8df"/><rect width="900" height="58" fill="#765f56"/><text x="48" y="38" fill="#fff8ef" font-family="Arial" font-size="19">ESSENSUALS / APPOINTMENTS</text><text x="55" y="111" fill="#594b43" font-family="Arial" font-size="25">Thursday, 14 September</text><rect x="55" y="143" width="790" height="390" rx="8" fill="#fbf9f5"/><g stroke="#e7e1d9"><path d="M55 207h790M55 273h790M55 339h790M55 405h790M55 471h790"/><path d="M151 143v390M250 143v390M349 143v390M448 143v390M547 143v390M646 143v390M745 143v390"/></g><g fill="#786257" font-family="Arial" font-size="13"><text x="164" y="177">MON</text><text x="264" y="177">TUE</text><text x="363" y="177">WED</text><text x="462" y="177">THU</text><text x="561" y="177">FRI</text><text x="660" y="177">SAT</text><text x="759" y="177">SUN</text></g><rect x="461" y="216" width="81" height="48" rx="5" fill="#d7c7bb"/><text x="468" y="236" fill="#50463f" font-family="Arial" font-size="11">Cut · Mia</text><text x="468" y="253" fill="#50463f" font-family="Arial" font-size="10">10:00</text><rect x="562" y="283" width="81" height="48" rx="5" fill="#d5d9c8"/><text x="570" y="303" fill="#465142" font-family="Arial" font-size="11">Colour · Sam</text><text x="570" y="320" fill="#465142" font-family="Arial" font-size="10">12:30</text><rect x="463" y="350" width="80" height="48" rx="5" fill="#e7d7c5"/><text x="470" y="370" fill="#50463f" font-family="Arial" font-size="11">Trim · Jules</text><text x="470" y="387" fill="#50463f" font-family="Arial" font-size="10">14:00</text><text x="55" y="570" fill="#766c64" font-family="Arial" font-size="14">Appointments · clients · staff · services</text></svg>
